<svg xmlns="http://www.w3.org/2000/svg" viewBox="0 0 1200 630" width="1200" height="630" role="img" aria-label="Can AI Predict Crypto Prices?">
  <defs>
    <linearGradient id="bg" x1="0" y1="0" x2="1" y2="1"><stop offset="0" stop-color="#0e1a28"/><stop offset="1" stop-color="#0a1018"/></linearGradient>
    <radialGradient id="glow" cx="80%" cy="30%" r="65%"><stop offset="0" stop-color="#a855f7" stop-opacity=".30"/><stop offset="1" stop-color="#a855f7" stop-opacity="0"/></radialGradient>
  </defs>
  <rect width="1200" height="630" fill="url(#bg)"/><rect width="1200" height="630" fill="url(#glow)"/>
  <g transform="translate(858,150)" fill="none" stroke="#a855f7" stroke-width="7" stroke-linecap="round" stroke-linejoin="round">
<path d="M120 20 C60 10 30 55 46 92 C18 108 22 158 56 168 C58 208 118 214 120 178 Z" fill="#a855f7" opacity=".15"/>
<path d="M120 20 C60 10 30 55 46 92 C18 108 22 158 56 168 C58 208 118 214 120 178 Z"/>
<line x1="120" y1="20" x2="120" y2="200"/><path d="M120 70 C155 60 170 95 150 110"/><path d="M120 130 C160 130 170 160 145 168"/>
<circle cx="150" cy="110" r="9" fill="#a855f7" stroke="none"/><circle cx="145" cy="168" r="9" fill="#a855f7" stroke="none"/><circle cx="72" cy="92" r="9" fill="#a855f7" stroke="none"/>
<line x1="150" y1="110" x2="196" y2="96"/><line x1="145" y1="168" x2="196" y2="184"/></g>
  <g font-family="Inter, -apple-system, Segoe UI, sans-serif">
    <text x="90" y="90" font-size="26" font-weight="800" letter-spacing="2" fill="#a855f7">TREVOLTO</text>
    <rect x="90" y="120" width="183" height="34" rx="17" fill="#a855f7" opacity=".16"/>
    <text x="107" y="143" font-size="18" font-weight="800" letter-spacing="1.5" fill="#a855f7">AI INSIGHTS</text>
    <text x="90" y="250" font-size="54" font-weight="900" fill="#ffffff"><tspan x="90" dy="0">Can AI Predict</tspan><tspan x="90" dy="68">Crypto Prices?</tspan></text>
    <text x="90" y="560" font-size="22" font-weight="700" fill="#8fa0b5">trevolto.com  &#183;  AI Crypto Trading Bot</text>
  </g>
</svg>