<svg xmlns="http://www.w3.org/2000/svg" viewBox="0 0 1280 752" width="1280" height="752" role="img" aria-label="Trevolto web dashboard — live BTC/USDT 15m chart with EMA overlays, a BUY signal firing at 86%, take-profit and stop-loss lines and a one-click Custom Trade panel" font-family="Segoe UI,Roboto,Helvetica,Arial,sans-serif"><defs>
 <linearGradient id="scr" x1="0" y1="0" x2="1" y2="1"><stop offset="0" stop-color="#0c111b"/><stop offset="1" stop-color="#0a0d13"/></linearGradient>
 <linearGradient id="acc" x1="0" y1="0" x2="1" y2="0"><stop offset="0" stop-color="#f97316"/><stop offset="1" stop-color="#fb923c"/></linearGradient>
 <clipPath id="cc"><rect x="232" y="198" width="772" height="452" rx="10"/></clipPath>
</defs><rect width="1280" height="752" fill="url(#scr)"/><rect x="0" y="0" width="212" height="752" fill="#0e1420"/><line x1="212" y1="0" x2="212" y2="752" stroke="#1a2130"/><circle cx="32" cy="40" r="12" fill="url(#acc)"/><text x="52" y="46" font-size="18" font-weight="800" fill="#e8edf5">Trevolto</text><rect x="12" y="73" width="188" height="36" rx="9" fill="rgba(249,115,22,.14)"/><rect x="12" y="73" width="3" height="36" rx="2" fill="#f97316"/><text x="32" y="96" font-size="14" font-weight="700" fill="#f97316">Dashboard</text><text x="32" y="146" font-size="14" font-weight="500" fill="#8a97ab">Exchange</text><text x="32" y="196" font-size="14" font-weight="500" fill="#8a97ab">Bot Setting</text><text x="32" y="246" font-size="14" font-weight="500" fill="#8a97ab">Profit Simulator</text><text x="32" y="296" font-size="14" font-weight="500" fill="#8a97ab">Analytics</text><text x="32" y="346" font-size="14" font-weight="500" fill="#8a97ab">Log</text><text x="32" y="396" font-size="14" font-weight="500" fill="#8a97ab">Settings</text><text x="32" y="446" font-size="14" font-weight="500" fill="#8a97ab">How it works</text><text x="232" y="42" font-size="15" font-weight="700" fill="#e8edf5">Live chart</text><rect x="316" y="24" width="120" height="30" rx="8" fill="#0e1420" stroke="#242d3e"/><text x="328" y="44" font-size="13" fill="#e8edf5">BTC/USDT</text><rect x="444" y="24" width="64" height="30" rx="8" fill="#0e1420" stroke="#242d3e"/><text x="454" y="44" font-size="13" fill="#e8edf5">15m ▾</text><rect x="516" y="24" width="74" height="30" rx="8" fill="#131824" stroke="#242d3e"/><text x="527" y="44" font-size="12.5" fill="#e8edf5">↻ Load</text><rect x="598" y="24" width="142" height="30" rx="8" fill="#0b1019" stroke="#242d3e"/><rect x="606" y="32" width="14" height="14" rx="3" fill="#f97316"/><text x="611" y="43" font-size="11" fill="#fff">✓</text><text x="626" y="44" font-size="12.5" fill="#cbd5e1">Follow strategy</text><rect x="936" y="24" width="32" height="30" rx="8" fill="#131824" stroke="#242d3e"/><text x="948" y="45" font-size="16" fill="#8a97ab" text-anchor="middle">+</text><rect x="972" y="24" width="32" height="30" rx="8" fill="#131824" stroke="#242d3e"/><text x="988" y="44" font-size="16" fill="#8a97ab" text-anchor="middle">−</text><rect x="232" y="66" width="66" height="28" rx="8" fill="#131824" stroke="#242d3e"/><text x="244" y="85" font-size="12.5" fill="#e8edf5">↻ Reset</text><text x="232" y="130" font-size="13.5" font-weight="700" fill="#cbd5e1">📊 BTC/USDT · 15m</text><text x="372" y="130" font-size="13.5" font-weight="700" fill="#22c55e">▲ 3 BUY</text><text x="446" y="130" font-size="13.5" font-weight="700" fill="#ef4444">▼ 2 SELL</text><rect x="560" y="108" width="444" height="40" rx="12" fill="rgba(34,197,94,.10)" stroke="#22c55e" stroke-width="1.6"/><text x="576" y="134" font-size="14.5" font-weight="800" fill="#22c55e">▲ BUY READY ⚡</text><text x="716" y="134" font-size="13" fill="#8a97ab">Entry imminent</text><text x="836" y="134" font-size="15" font-weight="800" fill="#e8edf5">86%</text><rect x="876" y="124" width="112" height="8" rx="4" fill="rgba(34,197,94,.25)"/><rect x="876" y="124" width="96" height="8" rx="4" fill="#22c55e"/><rect x="232" y="158" width="196" height="28" rx="8" fill="#0b1019" stroke="#242d3e"/><text x="244" y="177" font-size="12.5" fill="#cbd5e1">📰 NEWS TRADING</text><rect x="372" y="163" width="44" height="18" rx="9" fill="rgba(34,197,94,.25)"/><circle cx="407" cy="172" r="7" fill="#22c55e"/><text x="381" y="176" font-size="10.5" font-weight="700" fill="#22c55e">ON</text><rect x="232" y="198" width="772" height="452" rx="10" fill="#0b1019" stroke="#1a2130"/><g clip-path="url(#cc)"><line x1="236" y1="214" x2="1000" y2="214" stroke="#131a26"/><line x1="236" y1="260" x2="1000" y2="260" stroke="#131a26"/><line x1="236" y1="306" x2="1000" y2="306" stroke="#131a26"/><line x1="236" y1="352" x2="1000" y2="352" stroke="#131a26"/><line x1="236" y1="398" x2="1000" y2="398" stroke="#131a26"/><line x1="236" y1="444" x2="1000" y2="444" stroke="#131a26"/><line x1="236" y1="490" x2="1000" y2="490" stroke="#131a26"/><line x1="236" y1="536" x2="1000" y2="536" stroke="#131a26"/><line x1="236" y1="582" x2="1000" y2="582" stroke="#131a26"/><line x1="236" y1="628" x2="1000" y2="628" stroke="#131a26"/><line x1="250.0" y1="474.9" x2="250.0" y2="501.3" stroke="#22c55e" stroke-width="1.3"/><rect x="242.4" y="489.5" width="15.2" height="1.6" rx="1" fill="#22c55e"/><line x1="278.3" y1="473.5" x2="278.3" y2="527.0" stroke="#ef4444" stroke-width="1.3"/><rect x="270.7" y="489.5" width="15.2" height="28.5" rx="1" fill="#ef4444"/><line x1="306.7" y1="497.2" x2="306.7" y2="570.7" stroke="#ef4444" stroke-width="1.3"/><rect x="299.1" y="518.0" width="15.2" height="38.0" rx="1" fill="#ef4444"/><line x1="335.0" y1="541.3" x2="335.0" y2="598.9" stroke="#ef4444" stroke-width="1.3"/><rect x="327.4" y="556.0" width="15.2" height="28.5" rx="1" fill="#ef4444"/><line x1="363.3" y1="569.2" x2="363.3" y2="613.8" stroke="#ef4444" stroke-width="1.3"/><rect x="355.7" y="584.5" width="15.2" height="9.5" rx="1" fill="#ef4444"/><line x1="391.7" y1="577.6" x2="391.7" y2="614.2" stroke="#ef4444" stroke-width="1.3"/><rect x="384.1" y="594.0" width="15.2" height="4.8" rx="1" fill="#ef4444"/><line x1="420.0" y1="559.2" x2="420.0" y2="615.8" stroke="#22c55e" stroke-width="1.3"/><rect x="412.4" y="570.2" width="15.2" height="28.5" rx="1" fill="#22c55e"/><line x1="448.3" y1="554.9" x2="448.3" y2="590.2" stroke="#ef4444" stroke-width="1.3"/><rect x="440.7" y="570.2" width="15.2" height="4.8" rx="1" fill="#ef4444"/><line x1="476.7" y1="515.3" x2="476.7" y2="592.4" stroke="#22c55e" stroke-width="1.3"/><rect x="469.1" y="532.2" width="15.2" height="42.8" rx="1" fill="#22c55e"/><line x1="505.0" y1="479.9" x2="505.0" y2="546.9" stroke="#22c55e" stroke-width="1.3"/><rect x="497.4" y="499.0" width="15.2" height="33.2" rx="1" fill="#22c55e"/><line x1="533.3" y1="489.2" x2="533.3" y2="535.0" stroke="#ef4444" stroke-width="1.3"/><rect x="525.7" y="499.0" width="15.2" height="23.8" rx="1" fill="#ef4444"/><line x1="561.7" y1="453.2" x2="561.7" y2="544.6" stroke="#22c55e" stroke-width="1.3"/><rect x="554.1" y="465.8" width="15.2" height="57.0" rx="1" fill="#22c55e"/><line x1="590.0" y1="408.5" x2="590.0" y2="487.5" stroke="#22c55e" stroke-width="1.3"/><rect x="582.4" y="418.2" width="15.2" height="47.5" rx="1" fill="#22c55e"/><line x1="618.3" y1="398.9" x2="618.3" y2="452.2" stroke="#ef4444" stroke-width="1.3"/><rect x="610.7" y="418.2" width="15.2" height="14.2" rx="1" fill="#ef4444"/><line x1="646.7" y1="357.7" x2="646.7" y2="450.5" stroke="#22c55e" stroke-width="1.3"/><rect x="639.1" y="375.5" width="15.2" height="57.0" rx="1" fill="#22c55e"/><line x1="675.0" y1="318.9" x2="675.0" y2="388.2" stroke="#22c55e" stroke-width="1.3"/><rect x="667.4" y="328.0" width="15.2" height="47.5" rx="1" fill="#22c55e"/><line x1="703.3" y1="287.4" x2="703.3" y2="339.6" stroke="#22c55e" stroke-width="1.3"/><rect x="695.7" y="309.0" width="15.2" height="19.0" rx="1" fill="#22c55e"/><line x1="731.7" y1="287.6" x2="731.7" y2="364.1" stroke="#ef4444" stroke-width="1.3"/><rect x="724.1" y="309.0" width="15.2" height="42.8" rx="1" fill="#ef4444"/><line x1="760.0" y1="291.8" x2="760.0" y2="361.2" stroke="#22c55e" stroke-width="1.3"/><rect x="752.4" y="309.0" width="15.2" height="42.8" rx="1" fill="#22c55e"/><line x1="788.3" y1="263.8" x2="788.3" y2="327.7" stroke="#22c55e" stroke-width="1.3"/><rect x="780.7" y="280.5" width="15.2" height="28.5" rx="1" fill="#22c55e"/><line x1="816.7" y1="255.6" x2="816.7" y2="294.4" stroke="#22c55e" stroke-width="1.3"/><rect x="809.1" y="266.2" width="15.2" height="14.2" rx="1" fill="#22c55e"/><line x1="845.0" y1="257.5" x2="845.0" y2="309.8" stroke="#ef4444" stroke-width="1.3"/><rect x="837.4" y="266.2" width="15.2" height="23.8" rx="1" fill="#ef4444"/><line x1="873.3" y1="274.4" x2="873.3" y2="322.7" stroke="#ef4444" stroke-width="1.3"/><rect x="865.7" y="290.0" width="15.2" height="19.0" rx="1" fill="#ef4444"/><line x1="901.7" y1="299.7" x2="901.7" y2="368.3" stroke="#ef4444" stroke-width="1.3"/><rect x="894.1" y="309.0" width="15.2" height="38.0" rx="1" fill="#ef4444"/><line x1="930.0" y1="335.9" x2="930.0" y2="428.6" stroke="#ef4444" stroke-width="1.3"/><rect x="922.4" y="347.0" width="15.2" height="61.8" rx="1" fill="#ef4444"/><polyline points="250.0,296.0 278.3,312.4 306.7,330.5 335.0,349.3 363.3,367.4 391.7,384.5 420.0,398.3 448.3,411.4 476.7,420.3 505.0,426.2 533.3,433.3 561.7,435.7 590.0,434.4 618.3,434.3 646.7,429.9 675.0,422.4 703.3,414.0 731.7,409.4 760.0,401.9 788.3,392.9 816.7,383.6 845.0,376.6 873.3,371.6 901.7,369.8 930.0,372.7" fill="none" stroke="#8b5cf6" stroke-width="2" stroke-linejoin="round" opacity=".95"/><polyline points="250.0,489.5 278.3,493.9 306.7,503.4 335.0,515.9 363.3,527.9 391.7,538.8 420.0,543.7 448.3,548.5 476.7,546.0 505.0,538.8 533.3,536.3 561.7,525.4 590.0,508.9 618.3,497.2 646.7,478.5 675.0,455.3 703.3,432.8 731.7,420.3 760.0,403.2 788.3,384.3 816.7,366.2 845.0,354.4 873.3,347.5 901.7,347.4 930.0,356.8" fill="none" stroke="#3b82f6" stroke-width="1.8" stroke-linejoin="round" opacity=".95"/><polyline points="250.0,489.5 278.3,499.0 306.7,518.0 335.0,540.2 363.3,558.1 391.7,571.7 420.0,571.2 448.3,572.5 476.7,559.1 505.0,539.0 533.3,533.6 561.7,511.0 590.0,480.1 618.3,464.2 646.7,434.6 675.0,399.1 703.3,369.1 731.7,363.3 760.0,345.2 788.3,323.6 816.7,304.5 845.0,299.7 873.3,302.8 901.7,317.5 930.0,347.9" fill="none" stroke="#f59e0b" stroke-width="1.8" stroke-linejoin="round" opacity=".95"/><path d="M392,616 l-6,10 h12 z" fill="#22c55e"/><text x="378" y="636" font-size="12" font-weight="700" fill="#22c55e">BUY</text><circle cx="562" cy="523" r="3.5" fill="none" stroke="#cbd5e1" stroke-width="1.4"/><text x="554" y="515" font-size="11" fill="#cbd5e1">exit</text><line x1="236" y1="463.7" x2="1000" y2="463.7" stroke="#22c55e" stroke-width="1.3" stroke-dasharray="7 5"/><line x1="236" y1="532.2" x2="1000" y2="532.2" stroke="#ef4444" stroke-width="1.3" stroke-dasharray="7 5"/><line x1="236" y1="408.8" x2="1000" y2="408.8" stroke="#e8edf5" stroke-width="1" stroke-dasharray="3 5" opacity=".55"/></g><rect x="936" y="451.7" width="66" height="24" rx="4" fill="#22c55e"/><text x="969" y="467.7" text-anchor="middle" font-family="ui-monospace,monospace" font-size="11" font-weight="700" fill="#fff">64234.29</text><text x="930" y="467.7" text-anchor="end" font-size="10.5" fill="#22c55e">TP</text><rect x="936" y="520.2" width="66" height="24" rx="4" fill="#ef4444"/><text x="969" y="536.2" text-anchor="middle" font-family="ui-monospace,monospace" font-size="11" font-weight="700" fill="#fff">64090.00</text><text x="930" y="536.2" text-anchor="end" font-size="10.5" fill="#ef4444">SL</text><rect x="936" y="396.8" width="66" height="24" rx="4" fill="#2b3547"/><text x="969" y="412.8" text-anchor="middle" font-family="ui-monospace,monospace" font-size="11" font-weight="700" fill="#e8edf5">64350.00</text><text x="300" y="668" text-anchor="middle" font-size="11" fill="#66738a">25</text><text x="600" y="668" text-anchor="middle" font-size="11" fill="#66738a">12:00</text><text x="900" y="668" text-anchor="middle" font-size="11" fill="#66738a">26</text><g opacity=".7"><rect x="244" y="628" width="7" height="10" fill="#5b6b86"/><rect x="253" y="622" width="7" height="16" fill="#5b6b86"/><text x="266" y="638" font-size="11" fill="#8a97ab">TradingView</text></g><text x="232" y="694" font-size="11" fill="#66738a">Drag to pan · scroll / pinch to zoom · hover for OHLC &amp; time.  <tspan fill="#f59e0b">— EMA fast</tspan>  <tspan fill="#3b82f6">— EMA slow</tspan>  <tspan fill="#8b5cf6">— trend</tspan>  ▲ BUY / ▼ SELL · SL / TP lines</text><rect x="1024" y="24" width="240" height="470" rx="12" fill="#0e1420" stroke="#1a2130"/><text x="1042" y="58" font-size="16" font-weight="800" fill="#e8edf5">🎯 Custom Trade</text><text x="1042" y="92" font-size="11.5" fill="#8a97ab">Symbol</text><rect x="1042" y="100" width="204" height="38" rx="8" fill="#0b1019" stroke="#242d3e"/><text x="1054" y="124" font-family="ui-monospace,monospace" font-size="13.5" fill="#e8edf5">BTC/USDT</text><text x="1232" y="124" font-size="12" fill="#8a97ab">▾</text><text x="1042" y="158" font-size="11.5" fill="#8a97ab">Mark</text><rect x="1042" y="166" width="204" height="38" rx="8" fill="#0b1019" stroke="#242d3e"/><text x="1054" y="190" font-family="ui-monospace,monospace" font-size="13.5" fill="#e8edf5">64,308.96</text><text x="1042" y="224" font-size="11.5" fill="#8a97ab">Size (blank = auto)</text><rect x="1042" y="232" width="204" height="38" rx="8" fill="#0b1019" stroke="#242d3e"/><text x="1054" y="256" font-family="ui-monospace,monospace" font-size="13.5" fill="#66738a">auto</text><rect x="1042" y="300" width="98" height="44" rx="9" fill="#22c55e"/><text x="1066" y="328" font-size="14" font-weight="800" fill="#fff">▲ BUY</text><rect x="1148" y="300" width="98" height="44" rx="9" fill="#ef4444"/><text x="1170" y="328" font-size="14" font-weight="800" fill="#fff">▼ SELL</text><text x="1042" y="372" font-size="11.5" fill="#f59e0b">⚡ Live trading — orders are real.</text><text x="1042" y="390" font-size="11.5" fill="#8a97ab">Sizing: <tspan fill="#cbd5e1" font-family="ui-monospace,monospace">risk_stop</tspan></text></svg>
